<?xml version="1.0" encoding="UTF-8"?>
<!DOCTYPE svg PUBLIC "-//W3C//DTD SVG 1.1//EN" "http://www.w3.org/Graphics/SVG/1.1/DTD/svg11.dtd">
<svg xmlns="http://www.w3.org/2000/svg" xmlns:xlink="http://www.w3.org/1999/xlink" version="1.1" width="124px" height="124px" viewBox="-0.5 -0.5 124 124"><defs/><g><rect x="32" y="2" width="60" height="120" rx="9" ry="9" fill="#dae8fc" stroke="#6c8ebf" stroke-width="4" pointer-events="all"/><rect x="2" y="7" width="20" height="10" rx="1.5" ry="1.5" fill="#e1d5e7" stroke="#9673a6" stroke-width="4" pointer-events="all"/><rect x="2" y="27" width="10" height="10" rx="1.5" ry="1.5" fill="#e1d5e7" stroke="#9673a6" stroke-width="4" pointer-events="all"/><rect x="2" y="47" width="10" height="10" rx="1.5" ry="1.5" fill="#e1d5e7" stroke="#9673a6" stroke-width="4" pointer-events="all"/><rect x="2" y="67" width="20" height="10" rx="1.5" ry="1.5" fill="#e1d5e7" stroke="#9673a6" stroke-width="4" pointer-events="all"/><rect x="2" y="87" width="10" height="10" rx="1.5" ry="1.5" fill="#e1d5e7" stroke="#9673a6" stroke-width="4" pointer-events="all"/><rect x="2" y="107" width="20" height="10" rx="1.5" ry="1.5" fill="#e1d5e7" stroke="#9673a6" stroke-width="4" pointer-events="all"/><rect x="102" y="7" width="20" height="10" rx="1.5" ry="1.5" fill="#e1d5e7" stroke="#9673a6" stroke-width="4" pointer-events="all"/><rect x="112" y="27" width="10" height="10" rx="1.5" ry="1.5" fill="#e1d5e7" stroke="#9673a6" stroke-width="4" pointer-events="all"/><rect x="102" y="67" width="20" height="10" rx="1.5" ry="1.5" fill="#e1d5e7" stroke="#9673a6" stroke-width="4" pointer-events="all"/><rect x="112" y="47" width="10" height="10" rx="1.5" ry="1.5" fill="#e1d5e7" stroke="#9673a6" stroke-width="4" pointer-events="all"/><rect x="112" y="87" width="10" height="10" rx="1.5" ry="1.5" fill="#e1d5e7" stroke="#9673a6" stroke-width="4" pointer-events="all"/><rect x="102" y="107" width="20" height="10" rx="1.5" ry="1.5" fill="#e1d5e7" stroke="#9673a6" stroke-width="4" pointer-events="all"/><rect x="42" y="12" width="40" height="25" rx="3.75" ry="3.75" fill="#fff2cc" stroke="#d6b656" stroke-width="4" pointer-events="all"/><rect x="42" y="49.5" width="40" height="62.5" rx="6" ry="6" fill="#fff2cc" stroke="#d6b656" stroke-width="4" pointer-events="all"/></g></svg>